<svg xmlns="http://www.w3.org/2000/svg" width="50" height="44.956" viewBox="0 0 50 44.956"><path d="M25,2.523C11.165,2.547-.027,12.749,0,25.31.022,35.933,8.14,45.127,19.554,47.456a1.049,1.049,0,0,0,1.244-.721.863.863,0,0,0,.025-.2V41.376a1,1,0,0,0-1.044-.948H17.692c-2.6,0-4.383-2.242-5.942-4.221l-.48-.6a16.049,16.049,0,0,1,2.008,1.209,7.442,7.442,0,0,0,4.285,1.706,2.842,2.842,0,0,0,3.245-2.227,2.375,2.375,0,0,0,.015-.6v-.661a.966.966,0,0,0-.758-.912c-5.79-1.488-9.678-5.426-9.678-9.8a8.614,8.614,0,0,1,2.974-6.275.883.883,0,0,0,.2-1.058,4.88,4.88,0,0,1,.307-4.831A10.332,10.332,0,0,1,17.692,14.6a1.113,1.113,0,0,0,1.158.279,19.862,19.862,0,0,1,12.3,0A1.113,1.113,0,0,0,32.3,14.6a10.328,10.328,0,0,1,3.824-2.443,4.88,4.88,0,0,1,.307,4.831.883.883,0,0,0,.2,1.058,8.614,8.614,0,0,1,2.976,6.277c0,4.59-4.318,8.7-10.5,10a.949.949,0,0,0-.783,1.136.894.894,0,0,0,.095.231,7.486,7.486,0,0,1,.758,3.8v7.05a1,1,0,0,0,1.044.948,1.169,1.169,0,0,0,.225-.023C43.936,44.7,52.417,32.535,49.385,20.28,46.82,9.915,36.7,2.543,25,2.523Z" transform="translate(0.001 -2.523)" fill="#fff"/></svg>